<svg width="99" height="99" viewBox="0 0 99 99" fill="none" xmlns="http://www.w3.org/2000/svg">
<path d="M49.4972 98.1768C42.9257 98.1768 36.5512 96.8898 30.5508 94.3521C24.7551 91.9004 19.5491 88.3904 15.0787 83.9203C10.6082 79.4496 7.09865 74.2444 4.64695 68.4482C2.10886 62.4477 0.822266 56.0732 0.822266 49.5017C0.822266 42.9302 2.10886 36.5561 4.64695 30.5555C7.09865 24.7591 10.6083 19.5534 15.0787 15.0831C19.5492 10.6123 24.7551 7.10267 30.5508 4.65086C36.5513 2.11324 42.9258 0.826172 49.4972 0.826172C56.0687 0.826172 62.4433 2.11312 68.4437 4.65086C74.2399 7.10256 79.4455 10.6122 83.9159 15.0831C88.3864 19.5534 91.8959 24.759 94.3476 30.5555C96.8857 36.5561 98.1723 42.9302 98.1723 49.5017C98.1723 56.0732 96.8857 62.4478 94.3476 68.4482C91.8959 74.2444 88.3862 79.4496 83.9159 83.9203C79.4454 88.3904 74.2399 91.9004 68.4437 94.3521C62.4432 96.8897 56.0687 98.1768 49.4972 98.1768Z" fill="#FEFEFE"/>
<path d="M49.5 96.3506C23.6252 96.3506 2.64949 75.375 2.64949 49.5004C2.64949 23.6257 23.6252 2.64984 49.5 2.64984C75.375 2.64984 96.3506 23.6257 96.3506 49.5004C96.3506 75.375 75.375 96.3506 49.5 96.3506ZM49.5 0C22.1618 0 0 22.162 0 49.5004C0 76.8382 22.1618 99.0004 49.5 99.0004C76.8383 99.0004 99 76.8383 99 49.5004C99 22.162 76.8383 0 49.5 0Z" fill="#0C5E43"/>
<path d="M38.3529 62.0024C38.3529 62.0587 38.3624 62.0956 38.3513 62.1253C38.3145 62.2249 38.2751 62.3242 38.2279 62.419C38.0911 62.6967 38.009 62.9925 37.9416 63.2922C37.9042 63.4591 37.8878 63.6303 37.8582 63.7993C37.7548 64.3916 37.7652 64.9902 37.768 65.5881C37.7691 66.0268 37.8124 66.4627 37.8865 66.8941C37.9287 67.1434 37.9351 67.4019 38.0562 67.6344C38.0946 67.7085 38.1103 67.7951 38.0499 67.8706C37.9853 67.9499 37.8966 67.9505 37.8061 67.9293C37.6908 67.902 37.5769 67.8664 37.4606 67.8458C37.0886 67.7802 36.7161 67.7194 36.3438 67.6572C36.2557 67.6425 36.1684 67.6254 36.0801 67.6183C35.9222 67.6065 35.8289 67.7085 35.8692 67.8444C35.8776 67.8723 35.8761 67.903 35.8846 67.9317C35.9809 68.2786 36.0788 68.6253 36.1748 68.9722C36.2725 69.3249 36.3642 69.6794 36.4664 70.0304C36.5666 70.3705 36.6757 70.7075 36.7843 71.0446C36.983 71.6596 37.181 72.2757 37.3856 72.8887C36.9345 72.6547 36.4908 72.4079 36.0557 72.1491C35.9346 71.8165 35.8147 71.4834 35.6945 71.1509C35.5265 70.6836 35.3652 70.2142 35.2156 69.7405C34.9959 69.0479 34.7826 68.353 34.5821 67.6541C34.4617 67.234 34.3698 66.8065 34.2685 66.3815C34.2294 66.2194 34.3251 66.099 34.4914 66.0926C34.5319 66.0917 34.5731 66.1031 34.6132 66.1115C34.8797 66.1649 35.1434 66.2415 35.413 66.268C35.6847 66.2952 35.9495 66.3463 36.2142 66.4046C36.2721 66.4179 36.3319 66.4239 36.3902 66.422C36.4986 66.4192 36.5543 66.3752 36.5796 66.2705C36.5912 66.2195 36.5939 66.1639 36.5868 66.1126C36.5404 65.7795 36.5691 65.4466 36.6232 65.1216C36.7444 64.3926 36.9683 63.6955 37.3741 63.0689C37.5707 62.7665 37.7705 62.4648 38.0224 62.203C38.1075 62.1141 38.1948 62.0263 38.353 62.0027L38.3529 62.0024Z" fill="#0C5E43"/>
<path d="M48.1219 75.6092C48.1286 75.6727 48.1342 75.736 48.1412 75.7996C45.9637 75.6893 43.8566 75.3134 41.8502 74.7054C41.8258 74.5993 41.803 74.4938 41.7807 74.3877C41.6895 73.943 41.562 73.5065 41.4873 73.0573C41.4468 72.8133 41.3798 72.5729 41.3336 72.3292C41.297 72.1381 41.2795 71.9429 41.2449 71.7509C41.1719 71.3562 41.0821 70.9643 41.0195 70.5679C40.9403 70.0668 40.8768 69.5624 40.8139 69.0582C40.7429 68.4892 40.6786 67.9196 40.6134 67.3501C40.5931 67.1737 40.5899 66.9942 40.5572 66.8206C40.5142 66.5926 40.5354 66.3789 40.6095 66.1581C40.7936 65.6095 40.9626 65.0559 41.1369 64.5034C41.1638 64.4191 41.1795 64.3311 41.2067 64.247C41.2599 64.0842 41.3524 64.042 41.5036 64.1122C41.5943 64.1549 41.6807 64.2083 41.769 64.2561C41.9046 64.328 42.0361 64.4118 42.1777 64.4691C42.5506 64.6192 42.9272 64.7596 43.3048 64.898C43.3815 64.926 43.4664 64.9371 43.5486 64.9406C43.5891 64.9424 43.6617 64.9169 43.6667 64.8922C43.676 64.8499 43.6562 64.787 43.6253 64.7549C43.5643 64.6914 43.4874 64.6439 43.4169 64.5897C42.9759 64.2516 42.6115 63.8401 42.2905 63.3897C42.1016 63.1252 41.9272 62.8501 41.7547 62.5745C41.6705 62.4417 41.6339 62.2975 41.6723 62.1337C41.8085 61.5537 41.8388 60.9637 41.83 60.37C41.822 59.8437 41.7982 59.3168 41.9454 58.8002C42.0135 58.5634 42.112 58.3444 42.273 58.1575C42.3278 58.0953 42.3956 58.0366 42.4898 58.0776C42.5716 58.1133 42.5957 58.189 42.5869 58.2701C42.5659 58.4552 42.6138 58.6347 42.6229 58.816C42.6403 59.1502 42.7041 59.4739 42.7912 59.7921C43.1268 61.0202 43.7974 62.0326 44.7928 62.8225C45.2719 63.2028 45.8014 63.506 46.3755 63.7254C46.5631 63.797 46.613 63.9136 46.5042 64.0858C46.3117 64.3907 46.1092 64.6897 45.9024 64.9855C45.7355 65.2254 45.5155 65.4161 45.2993 65.6106C45.1411 65.7527 45.1278 65.8854 45.236 66.0688C45.2634 66.1145 45.2922 66.1595 45.3262 66.2012C45.6718 66.6318 46.0571 67.0247 46.4804 67.3792C46.8209 67.6642 47.1674 67.9426 47.5134 68.2202C47.6579 68.3355 47.7279 68.4721 47.7254 68.6631C47.7216 69.0117 47.7394 69.3609 47.7489 69.7102C47.7569 70.0007 47.7597 70.2914 47.7768 70.5808C47.8016 71.024 47.8397 71.4666 47.8659 71.9094C47.8889 72.2936 47.9008 72.6785 47.922 73.062C47.9377 73.3336 47.9609 73.6054 47.9835 73.8765C48.0091 74.1767 48.0404 74.4764 48.0649 74.7768C48.0869 75.0545 48.0949 75.3328 48.1218 75.6098L48.1219 75.6092Z" fill="#0C5E43"/>
<path d="M49.8509 55.3547C50.015 55.6233 50.0263 55.9163 49.8513 56.1953C49.6163 56.5697 49.2765 56.7646 48.8375 56.8323C48.1665 56.9368 47.5599 56.7697 46.9819 56.4526C46.1009 55.9689 45.425 55.2661 44.8603 54.4459C44.5128 53.9425 44.21 53.4145 43.9802 52.8469C43.8205 52.4523 43.6536 52.0587 43.5516 51.6456C43.4325 51.1643 43.3193 50.6806 43.2352 50.1926C43.1689 49.8092 43.143 49.418 43.113 49.0293C43.0895 48.7275 43.1088 48.4237 43.1814 48.1297C43.2772 47.7434 43.5226 47.4892 43.9102 47.3795C44.2284 47.2894 44.5441 47.3208 44.8557 47.4106C45.2986 47.5367 45.7351 47.6875 46.1815 47.7986C46.7814 47.9478 47.3346 47.8604 47.7825 47.3873C47.8837 47.2801 47.9854 47.1711 48.0936 47.0712C48.3981 46.7897 48.7474 46.6251 49.1746 46.6898C49.2441 46.7002 49.3132 46.7187 49.3788 46.7429C49.6687 46.849 49.6967 46.9073 49.691 47.214C49.6823 47.6824 49.6887 48.1496 49.6887 48.6176H49.6785C49.6785 49.1091 49.673 49.6008 49.6809 50.0922C49.6862 50.3699 49.5444 50.526 49.2556 50.558C48.9808 50.5881 48.7153 50.5557 48.4739 50.3918C48.353 50.3098 48.2137 50.2493 48.0751 50.2014C47.862 50.1282 47.6955 50.2469 47.6811 50.4711C47.6755 50.5409 47.6797 50.6136 47.6933 50.6823C47.7189 50.8116 47.8003 50.8773 47.9322 50.9104C48.103 50.9527 48.2707 51.0135 48.432 51.0837C48.5029 51.1148 48.5668 51.1807 48.6147 51.2449C48.6884 51.3462 48.6453 51.4291 48.5228 51.4426C48.4878 51.4461 48.4515 51.4467 48.4162 51.4426C48.0854 51.4025 47.8172 51.5512 47.5703 51.7398C47.4107 51.8609 47.2762 52.0144 47.1257 52.1471C46.9926 52.2648 46.8588 52.3832 46.7157 52.4866C46.4814 52.6552 46.342 52.6759 46.0221 52.4534C45.9736 52.4198 45.9351 52.3715 45.887 52.338C45.7724 52.2591 45.6697 52.292 45.6206 52.4237C45.5691 52.5595 45.5842 52.6946 45.6488 52.8197C45.7844 53.082 45.9943 53.2458 46.2887 53.3068C46.6193 53.3756 46.9434 53.3488 47.2747 53.296C47.752 53.221 48.2018 53.0651 48.6486 52.8912C48.7359 52.857 48.8166 52.8042 48.8976 52.7564C49.0208 52.6824 49.1431 52.6834 49.2695 52.7467C49.4225 52.8242 49.5786 52.8958 49.7313 52.9748C49.9332 53.0791 49.951 53.2195 49.7889 53.3816C49.5238 53.646 49.1973 53.7714 48.8302 53.7819C48.5347 53.7903 48.2375 53.7903 47.9494 53.703C47.9322 53.6982 47.9144 53.6963 47.897 53.6945C47.69 53.6719 47.6065 53.7822 47.6983 53.9749C47.7982 54.1832 47.9617 54.3378 48.1635 54.45C48.3364 54.5456 48.5268 54.5863 48.7181 54.6277C49.185 54.7283 49.595 54.9362 49.851 55.3545L49.8509 55.3547Z" fill="#0C5E43"/>
<path d="M51.4065 48.3448C51.3719 48.2442 51.3283 48.1464 51.2965 48.0451C51.2361 47.8513 51.3202 47.735 51.5252 47.7274C51.608 47.7246 51.6904 47.7267 51.7732 47.7267C52.1553 47.7256 52.5216 47.6344 52.8919 47.5545C53.3116 47.4636 53.7283 47.3414 54.1691 47.3798C54.4164 47.4014 54.5456 47.4933 54.5724 47.7395C54.6116 48.0925 54.6183 48.4449 54.5473 48.7995C54.4887 49.0951 54.452 49.3939 54.3287 49.6727C54.1604 50.053 53.9764 50.4246 53.6983 50.7376C53.4305 51.0389 53.1406 51.0521 52.8266 50.7938C52.6003 50.6076 52.4223 50.3764 52.2674 50.132C51.9112 49.5703 51.6214 48.9756 51.4066 48.3449L51.4065 48.3448Z" fill="#0C5E43"/>
<path d="M57.4667 65.8453C57.5684 66.1764 57.7307 66.4977 57.6103 66.8606C57.6047 66.877 57.6096 66.8962 57.6078 66.9137C57.5558 67.4498 57.5107 67.9863 57.4489 68.5206C57.3972 68.9667 57.3281 69.4108 57.2624 69.8548C57.1814 70.4039 57.1034 70.9532 57.0106 71.5004C56.9439 71.8961 56.8576 72.2884 56.7765 72.6811C56.6851 73.1268 56.5935 73.5722 56.495 74.0156C56.4258 74.3293 56.3508 74.6418 56.275 74.9544C54.2776 75.4852 52.187 75.7866 50.0332 75.8292C50.0472 75.7031 50.0611 75.5771 50.0709 75.4509C50.1104 74.967 50.1449 74.4833 50.1837 73.9998C50.2093 73.6932 50.2462 73.3875 50.2643 73.0799C50.3171 72.2057 50.3698 71.3315 50.41 70.456C50.438 69.8531 50.4529 69.2486 50.4579 68.6448C50.4595 68.4653 50.521 68.3379 50.6524 68.232C50.7033 68.1904 50.7551 68.151 50.807 68.1111C51.4283 67.6365 52.0281 67.1346 52.5581 66.5573C52.709 66.3929 52.8393 66.2067 52.9577 66.017C53.0649 65.8441 53.0389 65.723 52.8787 65.5962C52.3566 65.1824 52.0157 64.6267 51.6671 64.0759C51.582 63.9421 51.6227 63.8262 51.7642 63.7512C51.8113 63.726 51.8613 63.7075 51.9102 63.6862C52.5352 63.4193 53.1116 63.0746 53.6257 62.6258C54.4499 61.9064 55.0245 61.0263 55.3398 59.9786C55.401 59.7753 55.4767 59.5703 55.4977 59.3621C55.5336 58.9919 55.6262 58.627 55.6035 58.2515C55.6032 58.234 55.6053 58.2151 55.6095 58.1984C55.6438 58.0618 55.7552 58.0181 55.8631 58.1065C55.9168 58.1509 55.9615 58.2092 56.0013 58.2667C56.1571 58.4966 56.2322 58.7577 56.2871 59.0257C56.3645 59.3994 56.3638 59.7787 56.35 60.1576C56.3258 60.7933 56.3579 61.4261 56.4942 62.0472C56.5448 62.2783 56.4966 62.4596 56.3883 62.652C56.1868 63.0093 55.9483 63.3408 55.6916 63.6582C55.4198 63.9948 55.1313 64.3173 54.7814 64.5774C54.6962 64.6407 54.6135 64.7091 54.5373 64.7831C54.5129 64.8069 54.4952 64.8628 54.5062 64.8915C54.5177 64.9205 54.5672 64.9481 54.6029 64.9505C54.6535 64.9562 54.7088 64.945 54.7583 64.93C54.9337 64.8759 55.1068 64.8171 55.2811 64.7596C55.7316 64.6105 56.1741 64.4393 56.5688 64.1715C56.7663 64.037 56.9383 64.0055 57.0109 64.3363C57.0119 64.3418 57.0134 64.3478 57.015 64.3531C57.1652 64.8508 57.3133 65.3492 57.4662 65.8454L57.4667 65.8453Z" fill="#0C5E43"/>
<path d="M63.9171 66.3944C63.8312 66.7621 63.7523 67.1327 63.6479 67.4955C63.4442 68.1993 63.2298 68.9005 63.0098 69.5991C62.8355 70.1516 62.6493 70.7002 62.4621 71.2486C62.3437 71.5957 62.2187 71.9404 62.0874 72.2823C62.0301 72.4307 61.9732 72.5788 61.9163 72.7272C61.4958 72.9526 61.0687 73.1669 60.6352 73.3699C60.8018 72.8971 60.9545 72.4206 61.1113 71.9438C61.2311 71.5789 61.3525 71.2138 61.4616 70.8451C61.6938 70.0577 61.9177 69.2679 62.1451 68.4787C62.2036 68.2736 62.2687 68.0707 62.3148 67.8632C62.3568 67.6771 62.2631 67.5828 62.0801 67.6226C61.5144 67.7438 60.9329 67.7819 60.3712 67.93C60.1746 67.982 60.0611 67.8622 60.1278 67.673C60.2121 67.4366 60.2577 67.1959 60.2853 66.948C60.3171 66.6539 60.3905 66.3622 60.3963 66.0683C60.4103 65.3708 60.4533 64.6712 60.3527 63.9752C60.3387 63.876 60.3233 63.7768 60.3035 63.6783C60.2507 63.4181 60.2112 63.1541 60.1362 62.8999C60.0604 62.6463 59.9469 62.4036 59.853 62.1542C59.8341 62.1043 59.786 62.0504 59.861 61.9795C59.9064 62.0075 59.9563 62.0348 60.0021 62.0661C60.2162 62.2142 60.352 62.4319 60.5102 62.6319C60.8791 63.0968 61.1469 63.6161 61.3351 64.1742C61.4623 64.5496 61.5523 64.9339 61.5876 65.332C61.612 65.6104 61.6386 65.8849 61.6041 66.1639C61.5816 66.3445 61.6659 66.4286 61.8496 66.421C61.8965 66.4185 61.9429 66.407 61.9891 66.3973C62.0931 66.3749 62.1961 66.3471 62.3002 66.3292C62.7428 66.2525 63.1863 66.1816 63.6289 66.1022C63.8405 66.0645 63.9669 66.184 63.9174 66.3946L63.9171 66.3944Z" fill="#0C5E43"/>
<path d="M57.7766 42.1248C57.6777 42.1778 57.55 41.9987 57.6094 41.9159C58.8813 40.1626 59.6431 38.5233 59.7133 36.3342C59.7262 35.9395 59.8031 35.4548 59.7279 35.0696C59.6637 34.7409 59.5104 34.4007 59.2705 34.16C59.0369 33.9261 59.1989 34.0829 59.0739 34.0629C58.3996 33.9549 57.7974 34.4872 57.2023 34.9468C57.1928 35.0645 57.1844 35.1822 57.1749 35.2999C57.1557 35.5412 57.1348 35.7829 57.1202 36.0249C57.0863 36.5981 57.0573 37.1711 57.0248 37.7445C56.9983 38.2049 56.9626 38.6655 56.9421 39.1262C56.9148 39.7349 56.8963 40.3444 56.8782 40.9538C56.8666 41.3447 56.8625 41.7354 56.8533 42.1258C56.8492 42.3386 56.7612 42.423 56.5436 42.4227C56.0584 42.4209 55.573 42.4149 55.0883 42.4142C53.0155 42.4126 50.9427 42.4119 48.8706 42.4119C48.7871 42.4119 48.7044 42.4241 48.6219 42.4216C48.4456 42.414 48.3616 42.3319 48.3592 42.1539C48.3551 41.8993 48.3606 41.645 48.3606 41.39V35.9895H48.3645V30.1805C48.3645 30.0735 48.3575 29.9671 48.3575 29.8609C48.3582 29.6499 48.4465 29.5591 48.6603 29.5591C49.0158 29.5591 49.371 29.5594 49.7262 29.5667C50.3715 29.5783 51.0173 29.5877 51.6613 29.6114C52.0396 29.6254 52.4167 29.6638 52.794 29.6945C53.2008 29.7283 53.6074 29.7651 54.0143 29.8031C54.1606 29.8171 54.308 29.8328 54.4529 29.8586C54.8769 29.9357 55.3065 29.9944 55.7214 30.1055C56.1942 30.2315 56.6679 30.3747 57.0894 30.6374C57.4527 30.8641 57.6709 31.1811 57.6675 31.6311C57.6657 31.8871 57.63 32.1365 57.5829 32.3869C57.5822 32.3879 57.5822 32.3886 57.5822 32.389C59.0329 32.1623 60.8753 33.1992 61.1679 35.0588C61.5466 37.4612 59.8992 40.9803 57.7767 42.1244L57.7766 42.1248ZM47.7251 42.1702C47.7223 42.327 47.6588 42.4049 47.5044 42.4136C47.2979 42.4258 47.0905 42.4292 46.8841 42.4203C46.7295 42.4136 46.6491 42.327 46.6344 42.1723C46.6232 42.0546 46.6243 41.9359 46.6257 41.8171C46.6274 41.5153 46.6355 41.2137 46.6355 40.9112C46.6369 37.572 46.6369 34.2325 46.6362 30.8932C46.6362 30.5793 46.6295 30.2657 46.6274 29.9517C46.6267 29.9164 46.6264 29.8807 46.6302 29.8455C46.647 29.6904 46.7112 29.6233 46.8632 29.6024C46.9102 29.5961 46.9578 29.5971 47.0053 29.5953C47.1408 29.5908 47.2769 29.5908 47.4122 29.5814C47.6263 29.5674 47.7265 29.6488 47.7293 29.8612C47.7317 30.0442 47.7223 30.2279 47.7223 30.411C47.7216 32.2823 47.7216 34.1535 47.7216 36.0246V41.726C47.7216 41.8744 47.7283 42.0225 47.7251 42.1702ZM44.7076 42.416C44.5844 42.4251 44.4594 42.4146 44.3354 42.4146C43.9383 42.4142 43.5412 42.4146 43.1445 42.4146V42.4257C42.6586 42.4257 42.1736 42.4261 41.688 42.425C41.629 42.4243 41.5694 42.4195 41.512 42.4065C41.4174 42.3848 41.3548 42.323 41.3401 42.2249C41.33 42.155 41.3248 42.0841 41.3231 42.0132C41.3136 41.439 41.312 40.8641 41.2943 40.29C41.2787 39.7927 41.243 39.2967 41.2203 38.7998C41.1976 38.3157 41.1819 37.8302 41.1585 37.3459C41.1418 37.0026 41.1209 36.6603 41.0953 36.3173C41.0545 35.7745 41.0143 35.2312 40.9626 34.6891C40.9322 34.3776 40.8865 34.0671 40.8369 33.7581C40.7346 33.1231 40.6159 32.4896 40.5215 31.8536C40.4364 31.2811 40.6878 30.8673 41.181 30.5904C41.5337 30.3916 41.9161 30.2649 42.302 30.151C42.5343 30.0815 42.7686 30.0169 43.0068 29.9739C43.2331 29.9338 43.4661 29.9215 43.6912 29.9924C44.0604 30.1084 44.2851 30.3679 44.402 30.7269C44.4977 31.0203 44.5382 31.3216 44.5497 31.6328C44.5864 32.6089 44.6465 33.5844 44.6863 34.5603C44.7331 35.7316 44.7697 36.9037 44.8086 38.0752C44.8351 38.8798 44.855 39.6848 44.8833 40.4892C44.9021 41.0332 44.9286 41.5778 44.9552 42.1212C44.9636 42.3092 44.8959 42.402 44.7076 42.416ZM49.4983 23.166C34.9541 23.166 23.1641 34.9561 23.1641 49.4998C23.1641 55.2552 25.0106 60.5788 28.1434 64.9112C28.4461 64.5183 28.7825 64.153 29.1531 63.8149C29.9671 63.0734 31.0806 62.5632 32.0847 62.1297C33.1184 61.6834 34.1935 61.3373 35.2865 61.068C35.7964 60.9423 36.3095 60.8284 36.8233 60.7201C37.1578 60.6503 37.4972 60.6007 37.8344 60.5406C37.8867 60.5315 37.9387 60.5187 37.9894 60.5018C38.1155 60.4599 38.1759 60.3746 38.154 60.2451C38.1081 59.9716 38.0519 59.6996 38.0027 59.4265C37.9615 59.1998 37.9252 58.9717 37.885 58.7452C37.8204 58.3787 37.7557 58.0127 37.6876 57.6464C37.6464 57.424 37.6806 57.3517 37.8954 57.2643C37.9663 57.2357 38.0428 57.2216 38.1162 57.1997C38.3938 57.1169 38.6708 57.0331 38.9477 56.9509C39.3158 56.8417 39.685 56.7362 40.0517 56.6244C40.3119 56.545 40.5689 56.4568 40.8288 56.3764C41.4264 56.1914 42.0247 56.0072 42.6243 55.8263C42.8443 55.76 43.0678 55.704 43.2897 55.6423C43.3235 55.6331 43.3567 55.6191 43.3887 55.6041C43.527 55.5374 43.562 55.4344 43.4858 55.2989C43.4481 55.2319 43.3944 55.175 43.3539 55.1101C42.9976 54.5334 42.713 53.9223 42.4899 53.2832C42.3769 52.9593 42.2638 52.6349 42.1762 52.3041C42.0575 51.8596 41.9501 51.4107 41.8619 50.9588C41.8025 50.6582 41.7837 50.3498 41.7473 50.0442C41.7424 50.0034 41.7389 49.9618 41.7355 49.9206C41.7176 49.7303 41.6387 49.5829 41.4906 49.4499C40.9598 48.9735 40.6929 48.3607 40.6105 47.66C40.6038 47.607 40.5951 47.5539 40.5941 47.5011C40.5905 47.3047 40.4763 47.2028 40.3024 47.1459C39.977 47.0398 39.6486 46.9408 39.328 46.8204C38.9682 46.6855 38.6102 46.5435 38.2628 46.3807C37.8618 46.1921 37.469 45.9845 37.0807 45.7702C36.7062 45.5644 36.3535 45.3229 36.0734 44.9941C35.9718 44.8733 35.8855 44.7357 35.8111 44.5956C35.7361 44.4543 35.7535 44.3075 35.859 44.1814C36.0339 43.9722 36.2634 43.8611 36.527 43.8074C37.1825 43.6755 37.8455 43.6911 38.508 43.7116C38.7622 43.719 39.0154 43.7498 39.2686 43.7766C39.6445 43.8164 40.0214 43.8548 40.396 43.9066C40.7705 43.9582 41.143 44.0257 41.5161 44.0858C41.7439 44.1228 41.9719 44.1546 42.1989 44.1954C42.6233 44.2716 43.0465 44.3551 43.4708 44.4302C43.6161 44.4558 43.7639 44.4661 43.9105 44.483C44.3398 44.5327 44.7675 44.593 45.1971 44.6287C45.7576 44.6752 46.3199 44.6964 46.8811 44.738C47.8332 44.8078 48.7867 44.794 49.7401 44.7876C50.6342 44.7816 51.5276 44.7492 52.4189 44.6612C52.731 44.6306 53.0458 44.6274 53.3562 44.5869C53.9305 44.5121 54.5102 44.4821 55.0784 44.3574C55.3085 44.3067 55.5454 44.2848 55.778 44.2457C56.465 44.1311 57.1502 44.0005 57.84 43.9023C58.4132 43.8203 58.9908 43.7508 59.5688 43.7194C60.159 43.6882 60.7531 43.6628 61.342 43.7599C61.6438 43.8095 61.9531 43.844 62.2039 44.0518C62.4097 44.2219 62.4704 44.4303 62.3507 44.6667C62.2903 44.7862 62.2071 44.9003 62.1125 44.9954C61.9624 45.1452 61.8003 45.2859 61.6323 45.4169C61.1728 45.7763 60.662 46.0522 60.1305 46.2878C59.7739 46.4464 59.4157 46.6022 59.0521 46.7443C58.7329 46.8684 58.406 46.9706 58.083 47.0842C57.9879 47.1174 57.8951 47.1558 57.8019 47.1927C57.6517 47.2513 57.5804 47.3649 57.579 47.5224C57.5748 47.9726 57.4228 48.3792 57.2255 48.7752C57.0994 49.0281 56.9322 49.252 56.7132 49.4266C56.518 49.582 56.4547 49.7818 56.4354 50.0148C56.3942 50.5101 56.3269 51.0011 56.2081 51.485C56.1382 51.7711 56.0839 52.0627 56 52.3452C55.7461 53.1967 55.4461 54.0314 55.0136 54.812C54.9365 54.9514 54.8432 55.0817 54.757 55.2154C54.7339 55.2503 54.7063 55.2818 54.6867 55.3184C54.6113 55.4613 54.6505 55.5578 54.8027 55.6045C55.3731 55.7791 55.9443 55.9538 56.5147 56.127C57.2491 56.3505 57.9844 56.5733 58.7188 56.7959C59.1941 56.9391 59.6695 57.0798 60.1451 57.223C60.2129 57.244 60.2807 57.2656 60.3449 57.2953C60.4906 57.3634 60.5311 57.4382 60.5038 57.5929C60.4336 57.9879 60.3596 58.383 60.2901 58.7786C60.2269 59.139 60.1693 59.5009 60.106 59.8609C60.0857 59.9776 60.0546 60.0921 60.0317 60.2081C60.0027 60.3516 60.054 60.457 60.1951 60.498C60.3358 60.5382 60.4846 60.5518 60.6288 60.5815C61.0737 60.6729 61.5194 60.7652 61.964 60.8608C62.2926 60.9319 62.6219 61.0009 62.9479 61.083C63.779 61.2933 64.6001 61.5335 65.4031 61.8378C66.5189 62.2611 67.5399 62.8394 68.5226 63.5174C69.1467 63.9479 69.8051 64.3877 70.3974 64.8805C70.4969 64.9632 70.5947 65.0483 70.6905 65.135C73.922 60.7627 75.8321 55.3546 75.8321 49.5C75.8321 34.9563 64.0421 23.1663 49.4983 23.1663V23.166Z" fill="#0C5E43"/>
<path d="M80.6864 31.2115C81.0182 31.3878 81.379 31.5429 81.7694 31.6777C82.1592 31.8128 82.5608 31.8614 82.9736 31.8244C83.3861 31.7863 83.792 31.6502 84.19 31.4144C84.7114 31.1061 85.0678 30.6363 85.2605 30.0048C85.4525 29.3737 85.3821 28.7769 85.0492 28.2152C84.7411 27.6938 84.307 27.3221 83.749 27.1011L78.5527 30.1769C78.8413 30.2684 79.186 30.4189 79.5868 30.6302C79.9878 30.8416 80.3549 31.0354 80.6863 31.2115H80.6864Z" fill="#0C5E43"/>
<path d="M71.1388 79.5022C70.5475 78.8064 69.9357 78.349 69.3028 78.129C68.6711 77.9093 68.123 77.9526 67.6603 78.2571C67.1752 78.5763 66.9708 79.0387 67.0466 79.6453C67.1216 80.2513 67.4462 80.8887 68.0194 81.5568C68.6026 82.2658 69.2121 82.731 69.8466 82.9527C70.4805 83.1758 71.0317 83.1322 71.5004 82.8235C71.9848 82.5046 72.1901 82.0394 72.1151 81.429C72.041 80.8185 71.7152 80.1762 71.1389 79.5021L71.1388 79.5022Z" fill="#0C5E43"/>
<path d="M87.9802 61.546C88.0979 61.0644 88.014 60.7891 87.7291 60.7193L82.2199 59.3715C81.935 59.3017 81.7331 59.5074 81.6154 59.9886L81.5208 59.9663L82.8312 54.6081C83.1673 55.073 83.5213 55.3409 83.8936 55.4114C83.8389 55.6329 83.7449 55.827 83.6104 55.992C83.4763 56.1568 83.3404 56.286 83.2028 56.3806C83.0662 56.4745 82.9251 56.6262 82.7798 56.8357C82.6341 57.0452 82.5262 57.2952 82.4551 57.5866L82.3782 57.9006L85.3801 58.6343L84.9766 58.103C84.6756 57.7139 84.5831 57.282 84.6994 56.8073L84.925 55.8856C85.1352 56.4004 85.4401 56.7563 85.841 56.9554C85.7265 57.0679 85.6336 57.2668 85.5644 57.5519C85.4604 57.9763 85.5225 58.3667 85.7505 58.7251L88.2675 59.3413L88.7231 57.4794C88.8113 57.118 88.7708 56.8201 88.6 56.5837C88.4296 56.3469 88.146 56.1066 87.7496 55.862L87.8502 55.6955L89.1826 56.5044L89.2971 56.5729L88.0748 61.5694L87.9802 61.5462V61.546ZM85.1321 68.692L85.0423 68.6525C85.2406 68.1992 85.2061 67.9131 84.9376 67.795L79.7425 65.5191C79.4739 65.401 79.2402 65.5696 79.0413 66.023L78.9515 65.9842L81.165 60.9322C81.4168 61.4481 81.7186 61.7725 82.0734 61.9067C81.9811 62.1156 81.8554 62.2902 81.6944 62.4293C81.5337 62.5686 81.3776 62.6733 81.2264 62.7421C81.0751 62.8114 80.9103 62.9364 80.7308 63.1176C80.5516 63.2992 80.4022 63.5265 80.2816 63.8014L80.1524 64.0972L82.9824 65.3375L82.676 64.7445C82.4472 64.309 82.4305 63.8675 82.6267 63.4202L83.0075 62.5512C83.1255 63.0942 83.3654 63.4977 83.7255 63.7628C83.5935 63.8539 83.4685 64.0337 83.35 64.3028C83.1747 64.7027 83.1688 65.0991 83.3315 65.4902L85.705 66.5303L86.4741 64.7753C86.6236 64.4348 86.6348 64.1334 86.5073 63.8715C86.3805 63.6095 86.1423 63.3238 85.7942 63.0141L85.9223 62.8673L87.0955 63.8942L87.1968 63.9811L85.1321 68.6923V68.692ZM80.6033 75.2939L80.5248 75.2363C80.8164 74.8367 80.8443 74.5497 80.6076 74.3767L76.0258 71.0334C75.7893 70.8605 75.5249 70.9737 75.2326 71.3746L75.1533 71.3169L78.4048 66.8616C78.539 67.419 78.7638 67.8015 79.081 68.0089C78.9466 68.1926 78.7859 68.3358 78.599 68.4371C78.4115 68.5387 78.2369 68.6072 78.0745 68.6415C77.9121 68.6764 77.7234 68.7633 77.5095 68.902C77.2954 69.0403 77.1 69.2299 76.923 69.4726L76.7333 69.7328L79.2291 71.5549L79.058 70.9103C78.9285 70.4356 79.0078 70.0007 79.2958 69.6062L79.8543 68.8396C79.8529 69.3956 79.9993 69.8413 80.2944 70.1779C80.1453 70.2383 79.9846 70.3871 79.8114 70.6242C79.554 70.977 79.4625 71.3623 79.5373 71.7796L81.4724 73.1927C81.7089 73.3652 81.974 73.252 82.2663 72.851L82.3444 72.9088L80.6035 75.294L80.6033 75.2939ZM75.5532 80.4257L75.4847 80.3559C75.8388 80.0101 75.9143 79.7318 75.7085 79.5226L71.7466 75.4644C71.5417 75.2545 71.2615 75.3226 70.9073 75.6687L70.8389 75.5984L74.7851 71.7451C74.8246 72.3172 74.9835 72.7318 75.261 72.9885C75.0973 73.1488 74.9161 73.2627 74.7144 73.3311C74.5123 73.4006 74.3289 73.439 74.163 73.446C73.997 73.4529 73.797 73.5071 73.5629 73.6084C73.329 73.709 73.1041 73.8644 72.8899 74.074L72.659 74.2996L74.8178 76.5103L74.757 75.8455C74.7074 75.3565 74.8576 74.941 75.2075 74.5996L75.8861 73.9367C75.7918 74.4844 75.8624 74.9485 76.0974 75.3293C75.9406 75.3645 75.7569 75.4838 75.547 75.6894C75.2348 75.9942 75.0804 76.3588 75.0845 76.7832L76.7578 78.4973C76.9635 78.7072 77.243 78.6395 77.5971 78.293L77.6663 78.3628L75.553 80.4257H75.5532ZM72.9614 81.3233C72.7808 82.1996 72.2772 82.91 71.4494 83.4555C70.5892 84.0217 69.7325 84.1998 68.8796 83.9895C68.026 83.7786 67.324 83.2372 66.7739 82.3661C66.2022 81.487 66.007 80.61 66.1889 79.7366C66.3709 78.8635 66.8731 78.1556 67.6949 77.6143C68.5554 77.048 69.4111 76.8686 70.2629 77.0764C71.1137 77.284 71.8157 77.82 72.3682 78.6809C72.9434 79.5665 73.1412 80.4478 72.9612 81.3233H72.9614ZM65.7354 86.3012C65.4905 86.3839 65.3139 86.4689 65.2046 86.5554C65.0946 86.6427 64.9426 86.7518 64.7477 86.8816C64.5532 87.0115 64.3335 87.1227 64.0904 87.2158C63.3406 87.5008 62.6134 87.4747 61.9094 87.1358C61.2043 86.7971 60.6623 86.1285 60.2816 85.1294C60.1308 84.7332 60.0413 84.3191 60.0131 83.8867C59.9838 83.4546 60.0198 83.0265 60.1197 82.6007C60.2193 82.1756 60.4284 81.7824 60.7469 81.4203C61.0665 81.0577 61.4758 80.7819 61.9753 80.5915C62.2249 80.4969 62.4997 80.4214 62.7998 80.3662C63.0999 80.3114 63.3219 80.2632 63.4673 80.222C63.6122 80.1811 63.8731 80.0431 64.2513 79.8084C64.1571 80.0738 64.0914 80.2754 64.0519 80.4126C64.0138 80.5489 63.9865 80.7151 63.9694 80.9092C63.953 81.1042 63.9736 81.2672 64.0306 81.3995C63.8633 81.4557 63.6925 81.46 63.5171 81.4114C63.3418 81.3631 63.1871 81.3 63.0527 81.2218C62.9185 81.1443 62.7523 81.0891 62.555 81.0558C62.3577 81.0226 62.1558 81.0461 61.9484 81.1253C61.5097 81.2915 61.2596 81.6852 61.1993 82.304C61.1392 82.9244 61.2555 83.6176 61.5474 84.3852C61.8328 85.1343 62.2553 85.7444 62.8145 86.2156C63.3739 86.6857 63.855 86.8443 64.257 86.6917C64.397 86.6383 64.5262 86.5453 64.6432 86.4133C64.7602 86.2816 64.8633 86.1341 64.9508 85.9711C65.0389 85.809 65.1384 85.6442 65.2488 85.4766C65.3592 85.3088 65.5065 85.1465 65.691 84.989C65.8753 84.8318 66.0888 84.7065 66.333 84.6136C66.3706 84.7316 66.3821 84.872 66.3675 85.0348C66.3524 85.1976 66.3322 85.3358 66.3064 85.4504C66.2801 85.565 66.2925 85.6854 66.3452 85.8125C66.3961 85.9396 66.5016 86.0459 66.6599 86.1318C66.2882 86.1618 65.9795 86.2184 65.7357 86.3008L65.7354 86.3012ZM57.2108 89.8656L56.7117 89.9749L57.0547 81.7738L57.5545 81.6641L57.2108 89.8656ZM51.4825 89.764L51.4786 89.6669C51.9546 89.6616 52.1352 89.521 52.0202 89.245L51.6647 88.3775L51.2861 87.9514C51.115 87.7495 50.9585 87.6067 50.8147 87.5243C50.6712 87.4415 50.4885 87.4049 50.2677 87.4129C49.8438 87.4293 49.5654 87.4824 49.4316 87.5721C49.3851 87.3717 49.272 87.1611 49.0945 86.9392L48.3076 89.3962C48.2553 89.5615 48.2623 89.6704 48.3296 89.7228C48.3967 89.7762 48.5053 89.7992 48.655 89.7937L48.6593 89.8914L47.0073 89.9544L47.0034 89.8569C47.5253 89.837 47.8291 89.6883 47.9164 89.4112L48.809 86.6463C48.7284 86.5711 48.6474 86.5094 48.567 86.4601L48.8803 86.4479L49.7464 83.7628L49.6494 83.5219C49.8802 83.4223 50.0845 83.1405 50.2627 82.6767L50.7806 82.6568L53.4863 89.1989C53.5946 89.4682 53.8342 89.5964 54.2057 89.5824L54.2092 89.6805L51.4822 89.764H51.4825ZM45.8875 84.1872C45.6621 84.1502 45.4623 84.0705 45.2878 83.949C45.1125 83.8274 44.9734 83.7013 44.8694 83.5724C44.765 83.4425 44.6041 83.3133 44.3841 83.184C44.164 83.0548 43.9059 82.9657 43.6106 82.9169L43.292 82.8641L42.7856 85.9124L43.2858 85.4699C43.6507 85.1405 44.075 85.0159 44.557 85.0965L45.493 85.2516C44.9956 85.4996 44.6629 85.8313 44.4944 86.2459C44.3736 86.14 44.1679 86.0625 43.8795 86.015C43.4481 85.943 43.0625 86.0346 42.7234 86.2891L42.2984 88.845L44.1889 89.1589C44.5559 89.2197 44.8503 89.1568 45.0735 88.9688C45.296 88.7813 45.5142 88.4803 45.7283 88.0668L45.9025 88.1548L45.196 89.5445L45.1366 89.6631L40.0619 88.8205L40.078 88.7236C40.5666 88.805 40.8355 88.701 40.883 88.4111L41.8128 82.8161C41.861 82.5266 41.6406 82.3417 41.152 82.2604L41.1677 82.164L46.6087 83.0675C46.171 83.4377 45.9297 83.8107 45.8875 84.1869V84.1872ZM39.5891 81.9816C39.4979 82.0759 39.4302 82.1733 39.388 82.276C39.3452 82.3789 39.3006 82.5012 39.2531 82.6434C39.0705 82.5736 38.8005 82.3492 38.4432 81.969C38.0856 81.5887 37.7639 81.3439 37.4771 81.2348L35.3891 86.7174C35.2846 86.9916 35.4641 87.2168 35.9268 87.3933L35.8916 87.4851L33.2237 86.4688L33.2586 86.3769C33.7215 86.5532 34.0054 86.5042 34.1094 86.2301L36.1979 80.7469C35.9119 80.6379 35.5082 80.6065 34.9888 80.6525C34.4688 80.699 34.1179 80.6875 33.9347 80.6177C33.9941 80.4796 34.0419 80.3585 34.0785 80.2538C34.1149 80.1493 34.13 80.0309 34.1247 79.9C34.118 79.7683 34.0851 79.6182 34.0238 79.4484C34.1094 79.481 34.2421 79.549 34.4226 79.6527C34.6031 79.7564 34.733 79.8231 34.812 79.8528L39.1071 81.489C39.1861 81.519 39.3272 81.5554 39.531 81.5984C39.7347 81.641 39.8789 81.6783 39.9642 81.7108C39.8056 81.7966 39.6813 81.8871 39.589 81.9815L39.5891 81.9816ZM30.8281 78.1018C30.6919 78.1412 30.5358 78.2045 30.3618 78.2927C30.1872 78.3808 30.0594 78.4838 29.9773 78.6016C29.8414 78.4891 29.7478 78.3456 29.6971 78.1709C29.6458 77.9962 29.6186 77.8314 29.6144 77.6767C29.6106 77.521 29.5705 77.3505 29.4945 77.1655C29.4195 76.9797 29.2938 76.8197 29.1174 76.6853C28.7454 76.3989 28.2793 76.3934 27.7203 76.6671C27.1609 76.9403 26.6318 77.403 26.132 78.0552C25.6434 78.6911 25.3461 79.3712 25.2388 80.094C25.1317 80.8171 25.2493 81.3095 25.5908 81.5714C25.7096 81.6635 25.856 81.7236 26.03 81.7547C26.2036 81.7848 26.3827 81.7949 26.5671 81.7843C26.7521 81.7746 26.9442 81.7721 27.1451 81.7788C27.3458 81.7843 27.5614 81.8242 27.7925 81.899C28.0231 81.9729 28.2417 82.0892 28.4486 82.2482C28.3682 82.3426 28.2548 82.4264 28.1087 82.4987C27.9624 82.5713 27.834 82.6265 27.7228 82.6645C27.6114 82.703 27.5157 82.777 27.4348 82.8874C27.3536 82.9981 27.3184 83.1438 27.3282 83.3234C27.1067 83.0226 26.8975 82.7896 26.6988 82.6255C26.5008 82.4611 26.3356 82.3549 26.204 82.3071C26.072 82.2596 25.8998 82.1869 25.6871 82.0895C25.4741 81.9917 25.2644 81.8639 25.0574 81.7049C24.4209 81.2171 24.062 80.5846 23.9809 79.8065C23.8992 79.0291 24.1835 78.2163 24.8348 77.3684C25.0922 77.0323 25.3979 76.7386 25.7506 76.4876C26.1033 76.2364 26.4868 76.0412 26.9014 75.9032C27.3153 75.7645 27.7605 75.7367 28.2362 75.8176C28.7115 75.8994 29.1621 76.103 29.5861 76.428C29.7976 76.5904 30.0062 76.7856 30.2104 77.0119C30.4141 77.2385 30.572 77.4023 30.683 77.5036C30.7945 77.6057 31.0487 77.7558 31.4469 77.9541C31.1709 78.0135 30.9648 78.0631 30.828 78.1019L30.8281 78.1018ZM21.9456 79.007L19.9508 76.9638L20.021 76.895C20.3664 77.2498 20.6447 77.3249 20.8542 77.1199L24.9125 73.1569C25.1224 72.9519 25.054 72.6723 24.7082 72.3177L24.778 72.2492L25.3176 72.8024C25.7412 73.2176 26.1698 73.4698 26.6021 73.5575C26.4166 73.6477 26.2067 73.8065 25.9741 74.0342L21.811 78.0988C21.6008 78.3039 21.6689 78.5836 22.0154 78.9384L21.9455 79.007H21.9456ZM18.8852 75.9692L18.3892 75.2898C18.1011 74.895 18.0165 74.5244 18.136 74.1792C18.0532 74.1107 17.8395 73.9836 17.4958 73.7992C17.1503 73.6148 16.8846 73.3934 16.696 73.1357C16.2232 72.4879 16.0572 71.7791 16.1986 71.0112C16.3397 70.2418 16.842 69.5422 17.7057 68.9118C18.0479 68.6621 18.4234 68.4664 18.8331 68.325C19.2424 68.1837 19.665 68.105 20.1016 68.0893C20.5381 68.0736 20.973 68.1721 21.406 68.3844C21.8399 68.596 22.2138 68.9188 22.5289 69.3504C22.6867 69.5663 22.8316 69.8117 22.9637 70.0867C23.0956 70.3612 23.2008 70.5631 23.278 70.6916C23.3559 70.8212 23.5581 71.037 23.884 71.3398C23.6029 71.3189 23.3908 71.3084 23.249 71.3065C23.1069 71.3058 22.9393 71.3226 22.7472 71.3587C22.5551 71.3932 22.4032 71.4561 22.2914 71.5459C22.193 71.3999 22.144 71.2361 22.144 71.0542C22.1447 70.8718 22.1645 70.7059 22.2041 70.5557C22.2442 70.4056 22.2543 70.231 22.2338 70.0318C22.2135 69.8327 22.1378 69.6438 22.0075 69.465C21.7308 69.0853 21.2856 68.9485 20.672 69.0532C20.0579 69.1579 19.4199 69.4528 18.7563 69.9369C18.1085 70.4098 17.6314 70.9777 17.3251 71.6412C17.0177 72.3055 16.9916 72.8108 17.2455 73.1583C17.3104 73.2478 17.395 73.3217 17.498 73.3794C17.6004 73.4378 17.6912 73.4789 17.7687 73.5027C17.8466 73.5261 17.9671 73.5558 18.1299 73.59C18.292 73.625 18.4071 73.6501 18.4753 73.6651C18.5133 73.6291 18.5773 73.5784 18.6671 73.5135L19.7334 72.7351C19.9705 72.5622 19.9423 72.2754 19.6509 71.8751L19.7292 71.8175L20.1848 72.4416C20.5453 72.9131 20.933 73.2236 21.3485 73.3724C21.1519 73.4346 20.9217 73.5621 20.6588 73.7541L18.8811 75.0515C18.6447 75.2244 18.6723 75.5108 18.9642 75.9115L18.8853 75.9691L18.8852 75.9692ZM14.5956 69.8583L14.5068 69.8999L13.3691 67.4198L13.4578 67.3786C13.6474 67.8151 13.8476 67.927 14.0572 67.7139L14.7179 67.0485L14.9631 66.5341C15.0829 66.2984 15.1527 66.098 15.1737 65.9338C15.1939 65.7699 15.1572 65.5869 15.063 65.3861C14.8837 65.0022 14.7266 64.7668 14.5915 64.6785C14.758 64.5574 14.909 64.3716 15.0441 64.1218L12.474 64.3516C12.3018 64.3677 12.204 64.4172 12.1816 64.499C12.1589 64.5818 12.1794 64.6911 12.2431 64.8269L12.1543 64.8682L11.454 63.3712L11.5424 63.3298C11.7635 63.8024 12.0191 64.0248 12.3079 63.9976L15.2025 63.7455C15.2399 63.6413 15.2661 63.5429 15.28 63.4497L15.4127 63.7332L18.2238 63.4877L18.4075 63.3047C18.5891 63.4783 18.9285 63.5575 19.4248 63.5411L19.6445 64.0108L14.6695 69.0467C14.4628 69.251 14.4384 69.5219 14.5955 69.8582L14.5956 69.8583ZM11.0972 62.2646L11.0011 62.2856L10.3925 59.4961L10.4885 59.4752C10.5939 59.9589 10.7898 60.1697 11.0762 60.1073L16.1305 59.0043L10.0921 58.1201L10.009 57.7379L14.8925 54.5699L10.097 55.6162C9.80991 55.6795 9.71953 55.9523 9.82493 56.4366L9.72963 56.4578L9.32901 54.6229L9.42514 54.602C9.53019 55.0864 9.72645 55.297 10.0129 55.2348L15.5545 54.0249C15.8416 53.9627 15.9316 53.6892 15.8262 53.2048L15.9218 53.1839L16.3718 55.2479L12.0759 58.0371L17.1435 58.783L17.594 60.8464L17.498 60.8674C17.3926 60.383 17.1967 60.1724 16.9103 60.2353L11.3687 61.4447C11.0823 61.5073 10.9916 61.7808 11.0973 62.2645L11.0972 62.2646ZM11.6022 30.6399C11.8453 30.1513 12.1089 29.7354 12.3925 29.3928C12.6757 29.0491 12.9077 28.7963 13.0878 28.6343C13.2684 28.4722 13.4483 28.1838 13.6281 27.7691C13.808 27.3548 13.9554 26.8046 14.0704 26.1185C14.1242 26.2254 14.2055 26.3819 14.3145 26.5886C14.4239 26.7956 14.4972 26.9347 14.5345 27.0063C14.5719 27.0782 14.6348 27.1851 14.7225 27.3283C14.8105 27.4719 14.8821 27.5739 14.938 27.6347C14.9938 27.6958 15.0713 27.7744 15.1694 27.8697C15.2679 27.9654 15.3717 28.0433 15.481 28.1037C15.5893 28.1648 15.7133 28.2294 15.8512 28.2982C15.6346 28.681 15.3122 28.9883 14.8854 29.2202C14.4582 29.4525 14.042 29.6893 13.6358 29.9313C13.23 30.1744 12.9296 30.4922 12.7332 30.8851C12.5272 31.2997 12.4573 31.6999 12.5244 32.0842C12.5921 32.4694 12.8219 32.7599 13.2152 32.9556C13.5557 33.125 13.9989 33.0998 14.5455 32.8812C15.0921 32.663 15.6694 32.356 16.276 31.962C16.8837 31.568 17.5071 31.1814 18.1462 30.8039C18.7851 30.4254 19.4469 30.1613 20.1318 30.0108C20.8167 29.8612 21.4251 29.9182 21.9565 30.1825C22.945 30.6749 23.5373 31.4304 23.733 32.4496C23.9292 33.4691 23.7675 34.4994 23.2489 35.5411C23.0429 35.9556 22.8071 36.29 22.542 36.5423C22.2773 36.7949 22.0555 36.9873 21.8781 37.1168C21.7003 37.2478 21.5097 37.5506 21.3064 38.0259C21.1027 38.5016 20.9274 39.1808 20.7801 40.0621C20.4339 39.3991 20.1214 38.9021 19.8414 38.5708C19.5619 38.2398 19.1858 37.9629 18.7132 37.7403C18.8931 37.4323 19.1568 37.1623 19.5043 36.93C19.8511 36.6989 20.1871 36.5243 20.5108 36.4069C20.8342 36.2892 21.1527 36.136 21.4653 35.9469C21.7786 35.7575 21.9961 35.5411 22.1174 35.2966C22.329 34.8712 22.4177 34.4077 22.382 33.9059C22.3461 33.4043 22.0894 33.0342 21.611 32.7963C21.2496 32.6161 20.8419 32.5823 20.3879 32.695C19.9345 32.8072 19.4962 33.0146 19.0747 33.3145C18.6535 33.6156 18.1852 33.9363 17.6707 34.2774C17.1563 34.6177 16.6642 34.9271 16.1952 35.204C15.7255 35.4809 15.2162 35.6517 14.6665 35.7163C14.1171 35.7813 13.5926 35.6895 13.0928 35.4411C12.115 34.9542 11.5092 34.2581 11.2763 33.3529C11.0438 32.4487 11.1524 31.5442 11.6023 30.64L11.6022 30.6399ZM25.6117 13.8882L26.3877 13.3503L36.9547 20.7388C37.3852 21.0471 37.8792 21.0091 38.4347 20.6228L38.5368 20.7688L34.433 23.5722L34.3317 23.4262C35.0571 22.9516 35.1961 22.5584 34.7491 22.2474L33.3528 21.2653L32.3546 20.9824C31.894 20.8392 31.5126 20.7749 31.2118 20.7886C30.9107 20.8026 30.594 20.9241 30.2622 21.1543C29.628 21.5943 29.2528 21.9488 29.1358 22.2177C28.8676 21.9557 28.488 21.7428 27.9974 21.577L29.1984 26.12C29.2797 26.425 29.3978 26.5849 29.5527 26.6002C29.7082 26.6152 29.8978 26.5449 30.1222 26.3896L30.2237 26.5355L27.7506 28.2518L27.6486 28.1055C28.4292 27.5641 28.7505 27.0374 28.6125 26.5258L27.2724 21.4076C27.0748 21.3724 26.8895 21.3552 26.7185 21.3586L27.1865 21.0338L25.8837 16.0623L25.4989 15.7882C25.7548 15.4075 25.793 14.7746 25.6114 13.8883L25.6117 13.8882ZM41.9385 7.86108C42.3996 7.81988 42.8582 7.71682 43.3146 7.55061C43.771 7.38511 44.0837 7.18145 44.2531 6.93942C44.3799 7.29778 44.653 7.75074 45.0713 8.29773L48.4748 13.1806L50.1773 9.80993C50.3607 9.45967 50.3764 9.07091 50.2249 8.64271C50.0733 8.21556 49.7583 7.8558 49.2799 7.56458C50.4579 7.41234 51.5622 6.95656 52.5914 6.19688L48.6763 13.8413L49.0983 18.5786C49.1461 19.1113 49.6193 19.3371 50.518 19.2572L50.5337 19.4343L45.3532 19.8956L45.3374 19.7183C46.2361 19.6387 46.6622 19.3323 46.6146 18.7998L46.1848 13.9745L42.4579 8.67323C42.1575 8.24749 41.6644 8.0645 40.9788 8.12554L40.9627 7.94782L41.9386 7.8612L41.9385 7.86108ZM60.0468 17.5336L63.5467 10.5018C63.7842 10.0233 63.4995 9.58292 62.6917 9.18066L62.7706 9.02137L64.0304 9.6483C64.461 9.84901 64.9461 10.0143 65.485 10.1435C66.0246 10.272 66.4797 10.3101 66.8517 10.256C66.587 10.5224 66.3218 10.9213 66.0575 11.4525L62.6687 18.2618C62.4571 18.6868 62.3194 19.0693 62.257 19.4094C62.1935 19.7497 62.1836 20.0227 62.2266 20.2298C62.2692 20.4373 62.3628 20.6294 62.5066 20.8067C62.6498 20.9848 62.7801 21.1089 62.897 21.1805C63.0141 21.2521 63.1629 21.3323 63.3441 21.4225C63.9287 21.7134 64.6488 21.6118 65.506 21.1158C66.363 20.6202 66.9578 20.0377 67.2914 19.3679L70.0846 13.7547C70.3221 13.2763 70.0374 12.8362 69.2296 12.4345L69.3085 12.2745L74.1247 14.6715L74.0451 14.8312C73.2373 14.4288 72.7145 14.4673 72.4762 14.945L67.8738 24.1938C67.6411 24.6622 67.9227 25.1078 68.7207 25.5311L68.641 25.6904L67.3894 25.047C66.7031 24.6933 66.2402 24.2102 66.0004 23.6005C65.7601 22.99 65.8125 22.3393 66.1562 21.6484L66.3473 21.2653C65.6519 21.8622 64.8546 22.2775 63.9552 22.5128C63.0556 22.7478 62.1803 22.6543 61.3299 22.2313C60.5748 21.8555 60.0348 21.2552 59.7097 20.4292C59.3842 19.6045 59.4963 18.6393 60.0467 17.5336H60.0468ZM77.0445 49.5002C77.0445 64.7131 64.7122 77.0456 49.4991 77.0456C34.2864 77.0456 21.9538 64.7131 21.9538 49.5002C21.9538 34.2871 34.2865 21.9548 49.4991 21.9548C64.7122 21.9548 77.0445 34.2871 77.0445 49.5002ZM82.8173 24.9629C83.2769 24.6904 83.2769 24.1662 82.8181 23.3895L82.9708 23.2988L85.9285 28.2959C86.5275 29.3077 86.8048 30.3128 86.7612 31.3113C86.7175 32.3102 86.2819 33.0544 85.4543 33.5441C84.8406 33.9074 84.1973 33.9737 83.524 33.7446C82.8499 33.5155 82.0466 33.0906 81.1135 32.4702C81.1536 32.5157 81.2015 32.5837 81.2556 32.6756C81.6607 33.3601 81.826 34.0527 81.7508 34.753C81.6747 35.4528 81.2486 36.033 80.4726 36.4934L79.3536 37.1548C78.2392 37.8146 77.819 38.3737 78.0911 38.8337C78.1874 38.9976 78.3251 39.1061 78.5011 39.1603C78.6782 39.214 78.8492 39.2056 79.0145 39.1358C78.9377 39.3324 78.9226 39.4931 78.9691 39.6178C78.3911 39.5734 77.9049 39.2198 77.512 38.5554C77.1133 37.8806 76.9446 37.2177 77.0081 36.5668C77.0713 35.9151 77.4346 35.393 78.0985 35L78.8808 34.5373C79.5647 34.1321 79.9459 33.6441 80.0229 33.0745C80.0993 32.5049 79.9408 31.9569 79.5468 31.431C78.7691 30.9807 78.1274 30.7464 77.6199 30.7293L75.1068 32.2167C74.6465 32.4895 74.6465 33.014 75.1068 33.7904L74.9528 33.8811L72.3945 29.5585L72.5482 29.4678C73.0075 30.2445 73.4674 30.497 73.9274 30.2246L82.8176 24.9632L82.8173 24.9629ZM49.4991 4.62939C24.7177 4.62939 4.62891 24.719 4.62891 49.5001C4.62891 74.2811 24.7178 94.3704 49.4991 94.3704C74.2809 94.3704 94.3698 74.2811 94.3698 49.5001C94.3698 24.719 74.2809 4.62939 49.4991 4.62939Z" fill="#0C5E43"/>
<path d="M28.4344 20.1718C28.7654 19.9419 29.0822 19.8194 29.3833 19.8058C29.6846 19.7918 30.0653 19.8572 30.5257 19.9996L32.2544 20.4913L26.6836 16.6167L27.7463 20.6488L28.4344 20.1718Z" fill="#0C5E43"/>
<path d="M49.2501 86.435L49.7094 86.4172C49.9311 86.4088 50.1136 86.4459 50.2571 86.5287C50.4003 86.6114 50.5575 86.7539 50.7285 86.9558L51.3827 87.6945L49.9503 84.2559L49.25 86.4351L49.2501 86.435Z" fill="#0C5E43"/>
<path d="M15.5712 64.0711L15.7666 64.4875C15.8601 64.6879 15.8967 64.8706 15.8765 65.0347C15.856 65.1992 15.786 65.3996 15.6656 65.6354L15.2402 66.5253L17.8519 63.8682L15.5712 64.0711Z" fill="#0C5E43"/>
</svg>
